<svg width="250" height="60" viewBox="0 0 250 60" version="1.1" xmlns="http://www.w3.org/2000/svg" xmlns:xlink="http://www.w3.org/1999/xlink">
<title>Group</title>
<desc>Created using Figma</desc>
<g id="Canvas" transform="matrix(2 0 0 2 1400 1078)">
<g id="Group">
<g id="Group">
<g id="Vector">
<use xlink:href="#path0_fill" transform="translate(-700 -539)" fill="#25232E"/>
</g>
<g id="Vector">
<use xlink:href="#path1_fill" transform="translate(-700 -526.638)" fill="#25232E"/>
</g>
</g>
<g id="Group">
<g id="Group">
<g id="Vector">
<use xlink:href="#path2_fill" transform="translate(-675.678 -531.06)" fill="#25232E"/>
</g>
<g id="Vector">
<use xlink:href="#path3_fill" transform="translate(-653.116 -531.06)" fill="#25232E"/>
</g>
<g id="Vector">
<use xlink:href="#path4_fill" transform="translate(-628.894 -538.749)" fill="#25232E"/>
</g>
<g id="Vector">
<use xlink:href="#path5_fill" transform="translate(-619.849 -531.06)" fill="#25232E"/>
</g>
<g id="Vector">
<use xlink:href="#path6_fill" transform="translate(-594.372 -531.06)" fill="#25232E"/>
</g>
</g>
</g>
<g id="Vector">
<use xlink:href="#path7_fill" transform="translate(-580.905 -514.025)" fill="#25232E"/>
</g>
</g>
</g>
<defs>
<path id="path0_fill" d="M 17.6884 13.2663C 18.2412 13.6181 18.7437 14.0201 19.2462 14.4724C 20.7538 12.9146 21.7085 10.8543 21.7085 8.49246C 21.6583 3.8191 17.8392 0 13.1658 0L 2.56281 0C 1.15578 0 0 1.15578 0 2.56281L 0 5.77889C 0 7.18593 1.15578 8.34171 2.56281 8.34171C 3.96985 8.34171 5.12563 7.18593 5.12563 5.77889L 5.12563 5.12563L 13.1658 5.12563C 15.0251 5.12563 16.5829 6.63317 16.5829 8.54271C 16.5829 10.402 15.0754 11.9598 13.1658 11.9598L 11.7588 11.9598L 8.59296 11.9598C 7.18593 11.9598 6.03015 13.1156 6.03015 14.5226C 6.03015 15.9296 7.18593 17.0854 8.59296 17.0854L 11.7085 17.0854L 11.7588 17.0854L 11.809 17.0854L 13.1156 17.0854C 14.9749 17.0854 16.5327 18.593 16.5327 20.5025C 16.5327 22.3618 15.0251 23.9196 13.1156 23.9196L 4.42211 23.9196C 3.01508 23.9196 1.8593 25.0754 1.8593 26.4824C 1.8593 27.8894 3.01508 29.0452 4.42211 29.0452L 13.1658 29.0452C 17.8392 29.0452 21.6583 25.2261 21.6583 20.5528C 21.6583 18.2412 20.7035 16.1307 19.196 14.5729C 18.794 14.0201 18.2412 13.6181 17.6884 13.2663Z"/>
<path id="path1_fill" d="M 2.61307 5.12563C 4.0201 5.07538 5.12563 3.96985 5.12563 2.56281C 5.12563 1.15578 3.96985 1.91693e-07 2.56281 1.91693e-07C 1.15578 1.91693e-07 0 1.15578 0 2.56281C 0 3.96985 1.10553 5.07538 2.51256 5.12563L 2.61307 5.12563Z"/>
<path id="path2_fill" d="M 19.1457 11.8593C 18.6935 12.2613 18.1407 12.4623 17.4874 12.4623L 4.67337 12.4623C 4.97487 14.0201 5.67839 15.1759 6.83417 16.0804C 7.9397 16.9347 9.19598 17.3869 10.603 17.3869C 11.6583 17.3869 12.5126 17.2864 13.1156 17.0854C 13.7186 16.8844 14.1709 16.6834 14.5226 16.4824C 14.8744 16.2814 15.1256 16.1307 15.2261 16.0302C 15.6784 15.7789 16.1307 15.6784 16.5327 15.6784C 17.0854 15.6784 17.5377 15.8794 17.9397 16.2814C 18.3417 16.6834 18.5427 17.1357 18.5427 17.6382C 18.5427 18.3417 18.191 18.995 17.4372 19.5477C 16.7337 20.1508 15.7286 20.6533 14.5226 21.0553C 13.3166 21.4573 12.0603 21.6583 10.804 21.6583C 8.64322 21.6583 6.73367 21.206 5.07538 20.3015C 3.46734 19.397 2.21106 18.1407 1.30653 16.5327C 0.40201 14.9246 7.66773e-07 13.1156 7.66773e-07 11.1055C 7.66773e-07 8.84422 0.452262 6.88442 1.40704 5.22613C 2.36181 3.51759 3.56784 2.26131 5.12563 1.35678C 6.68342 0.452261 8.29146 9.58467e-08 10.0503 9.58467e-08C 11.7588 9.58467e-08 13.3668 0.452262 14.9246 1.40704C 16.4322 2.36181 17.6382 3.61809 18.593 5.17588C 19.4975 6.78392 19.9497 8.49246 19.9497 10.3015C 19.8492 10.9548 19.6482 11.4573 19.1457 11.8593ZM 4.67337 8.54271L 14.8744 8.54271L 14.8744 8.29146C 14.7739 7.18593 14.2211 6.28141 13.2663 5.47739C 12.3116 4.67337 11.206 4.32161 10 4.32161C 7.03518 4.27136 5.22613 5.67839 4.67337 8.54271Z"/>
<path id="path3_fill" d="M 19.196 11.8593C 18.7437 12.2613 18.191 12.4623 17.5377 12.4623L 4.67337 12.4623C 4.97487 14.0201 5.67839 15.1759 6.83417 16.0804C 7.9397 16.9347 9.19598 17.3869 10.603 17.3869C 11.6583 17.3869 12.5126 17.2864 13.1156 17.0854C 13.7186 16.8844 14.1709 16.6834 14.5226 16.4824C 14.8744 16.2814 15.1256 16.1307 15.2261 16.0302C 15.6784 15.7789 16.1307 15.6784 16.5327 15.6784C 17.0854 15.6784 17.5377 15.8794 17.9397 16.2814C 18.3417 16.6834 18.5427 17.1357 18.5427 17.6382C 18.5427 18.3417 18.191 18.995 17.4372 19.5477C 16.7337 20.1508 15.7286 20.6533 14.5226 21.0553C 13.3166 21.4573 12.0603 21.6583 10.804 21.6583C 8.64322 21.6583 6.73367 21.206 5.07538 20.3015C 3.46734 19.397 2.21106 18.1407 1.30653 16.5327C 0.402011 14.9246 1.53355e-06 13.1156 1.53355e-06 11.1055C 1.53355e-06 8.84422 0.452261 6.88442 1.40703 5.22613C 2.36181 3.51759 3.56784 2.26131 5.12563 1.35678C 6.68342 0.452261 8.29146 9.58467e-08 10.0503 9.58467e-08C 11.7588 9.58467e-08 13.3668 0.452262 14.9246 1.40704C 16.4322 2.36181 17.6382 3.61809 18.593 5.17588C 19.4975 6.78392 19.9497 8.49246 19.9497 10.3015C 19.9497 10.9548 19.6985 11.4573 19.196 11.8593ZM 4.72362 8.54271L 14.9246 8.54271L 14.9246 8.29146C 14.8241 7.18593 14.2714 6.28141 13.3166 5.47739C 12.3618 4.67337 11.2563 4.32161 10.0503 4.32161C 7.08543 4.27136 5.27638 5.67839 4.72362 8.54271Z"/>
<path id="path4_fill" d="M 4.0201 28.2412C 3.56784 28.6935 3.01508 28.9447 2.31156 28.9447C 1.65829 28.9447 1.10553 28.6935 0.653268 28.2412C 0.201007 27.7889 1.42823e-14 27.2362 1.42823e-14 26.5327L 1.42823e-14 2.41206C 1.42823e-14 1.75879 0.251253 1.15578 0.703515 0.703518C 1.15578 0.251256 1.70854 -2.2316e-15 2.41206 -2.2316e-15C 3.06533 -2.2316e-15 3.61809 0.251256 4.07035 0.703518C 4.52262 1.15578 4.72362 1.70854 4.72362 2.41206L 4.72362 26.5327C 4.72362 27.2362 4.47236 27.7889 4.0201 28.2412Z"/>
<path id="path5_fill" d="M 19.6985 0.653267C 20.1508 1.10553 20.3518 1.65829 20.3518 2.36181L 20.3518 18.8442C 20.3518 19.4975 20.1508 20.1005 19.6985 20.5528C 19.2462 21.005 18.6935 21.2563 18.0402 21.2563C 17.3869 21.2563 16.8342 21.0553 16.3819 20.603C 15.9297 20.1508 15.7286 19.598 15.6784 18.9447C 15.0251 19.6985 14.1709 20.3518 13.0653 20.8543C 11.9598 21.407 10.804 21.6583 9.59799 21.6583C 7.78895 21.6583 6.1809 21.206 4.72362 20.2513C 3.26633 19.3467 2.11055 18.0402 1.25628 16.4322C 0.40201 14.7739 1.42823e-14 12.9146 1.42823e-14 10.8543C 1.42823e-14 8.79397 0.40201 6.88442 1.25628 5.27638C 2.11055 3.61809 3.21608 2.36181 4.67337 1.40704C 6.13065 0.502513 7.68844 9.58467e-08 9.44724 9.58467e-08C 10.7035 9.58467e-08 11.8593 0.251257 12.9648 0.703518C 14.0704 1.15578 14.9749 1.75879 15.7286 2.46231L 15.7286 2.41206C 15.7286 1.75879 15.9297 1.15578 16.3819 0.703518C 16.8342 0.251257 17.3869 9.58467e-08 18.0402 9.58467e-08C 18.6935 9.58467e-08 19.2462 0.201005 19.6985 0.653267ZM 14.2714 15.4774C 15.3266 14.2211 15.8794 12.7136 15.8794 10.804C 15.8794 8.89447 15.3266 7.38693 14.2714 6.13065C 13.2161 4.87437 11.809 4.27136 10.1508 4.27136C 8.49246 4.27136 7.13568 4.87437 6.08041 6.13065C 5.02513 7.38693 4.47236 8.94472 4.47236 10.804C 4.47236 12.6633 4.97487 14.2211 6.03015 15.4774C 7.08543 16.7337 8.44221 17.3367 10.1508 17.3367C 11.809 17.3367 13.2161 16.7337 14.2714 15.4774Z"/>
<path id="path6_fill" d="M 16.5829 2.36181C 17.5879 3.9196 18.0905 6.13065 18.0905 8.89447L 18.0905 12.3618C 18.0905 13.0151 17.8894 13.6181 17.4372 14.0704C 16.9849 14.5226 16.4322 14.7739 15.7789 14.7739C 15.1256 14.7739 14.5226 14.5226 14.1206 14.0704C 13.6683 13.6181 13.4673 13.0653 13.4673 12.3618L 13.4673 8.89447C 13.4673 7.48744 13.1658 6.33166 12.5628 5.52764C 11.9598 4.72362 10.9548 4.32161 9.49749 4.32161C 7.98995 4.32161 6.78392 4.77387 5.92965 5.62814C 5.07538 6.48241 4.62311 7.58794 4.62311 8.94472L 4.62311 18.9447C 4.62311 19.598 4.42211 20.201 3.96985 20.6533C 3.51759 21.1055 2.96483 21.3568 2.31156 21.3568C 1.65829 21.3568 1.05528 21.1055 0.653266 20.6533C 0.201005 20.201 -1.53355e-06 19.6482 -1.53355e-06 18.9447L -1.53355e-06 2.76382C -1.53355e-06 2.11055 0.201005 1.50754 0.653266 1.05528C 1.10553 0.603015 1.65829 0.351759 2.31156 0.351759C 2.96483 0.351759 3.56784 0.603015 3.96985 1.05528C 4.42211 1.50754 4.62311 2.0603 4.62311 2.76382L 4.62311 3.41709C 5.32663 2.46231 6.23115 1.65829 7.38693 1.00502C 8.54271 0.351758 9.74874 9.58467e-08 11.1055 9.58467e-08C 13.7688 9.58467e-08 15.5779 0.753769 16.5829 2.36181Z"/>
<path id="path7_fill" d="M 2.51256 5.02513C 3.90021 5.02513 5.02513 3.90021 5.02513 2.51256C 5.02513 1.12491 3.90021 0 2.51256 0C 1.12491 0 0 1.12491 0 2.51256C 0 3.90021 1.12491 5.02513 2.51256 5.02513Z"/>
</defs>
</svg>
